<?xml version="1.0" encoding="UTF-8" standalone="no"?>
<svg
   xmlns:dc="http://purl.org/dc/elements/1.1/"
   xmlns:cc="http://creativecommons.org/ns#"
   xmlns:rdf="http://www.w3.org/1999/02/22-rdf-syntax-ns#"
   xmlns:svg="http://www.w3.org/2000/svg"
   xmlns="http://www.w3.org/2000/svg"
   viewBox="200 750 1500.4399 450.4399"
   height="400.4399"
   width="1500.4399"
   xml:space="preserve"
   id="svg2"
   version="1.1"><metadata
     id="metadata8"><rdf:RDF><cc:Work
         rdf:about=""><dc:format>image/svg+xml</dc:format><dc:type
           rdf:resource="http://purl.org/dc/dcmitype/StillImage" /></cc:Work></rdf:RDF></metadata><defs
     id="defs6"><clipPath
       id="clipPath18"
       clipPathUnits="userSpaceOnUse"><path
         id="path16"
         d="M 0,1434.328 H 1434.328 V 0 H 0 Z" /></clipPath></defs><g
     transform="matrix(1.3333333,0,0,-1.3333333,0,1912.44)"
     id="g10"><g
       id="g12"><g
         clip-path="url(#clipPath18)"
         id="g14"><g
           transform="translate(240.5771,675.2754)"
           id="g20"><path
             id="path22"
             style="fill:#42426d;fill-opacity:1;fill-rule:nonzero;stroke:none"
             d="m 0,0 c 0,-16.146 8.073,-24.218 24.218,-24.218 h 32.29 c 16.145,0 24.217,8.072 24.217,24.218 V 40.362 H 32.29 v 32.29 h 80.725 V 0 c 0,-37.674 -18.836,-56.508 -56.507,-56.508 h -32.29 c -37.674,0 -56.508,18.834 -56.508,56.508 v 113.015 c 0,37.671 18.834,56.507 56.508,56.507 h 88.797 v -32.29 H 24.218 C 8.073,137.232 0,129.16 0,113.015 Z" /></g><path
           id="path24"
           style="fill:#42426d;fill-opacity:1;fill-rule:nonzero;stroke:none"
           d="m 385.882,651.058 h 32.29 v -32.29 h -32.29 z" /><g
           transform="translate(579.6226,747.9277)"
           id="g26"><path
             id="path28"
             style="fill:#42426d;fill-opacity:1;fill-rule:nonzero;stroke:none"
             d="M 0,0 V -32.29 H -96.87 V -96.87 H 0 v -32.29 H -129.16 V 96.87 H 0 V 64.58 H -96.87 V 0 Z" /></g><path
           id="path30"
           style="fill:#42426d;fill-opacity:1;fill-rule:nonzero;stroke:none"
           d="m 611.913,651.058 h 32.29 v -32.29 h -32.29 z" /><g
           transform="translate(829.8711,844.7979)"
           id="g32"><path
             id="path34"
             style="fill:#42426d;fill-opacity:1;fill-rule:nonzero;stroke:none"
             d="m 0,0 v -169.522 c 0,-37.674 -18.837,-56.508 -56.508,-56.508 H -96.87 c -37.674,0 -56.508,18.834 -56.508,56.508 V 0 h 32.29 v -169.522 c 0,-16.146 8.073,-24.218 24.218,-24.218 h 40.362 c 16.145,0 24.218,8.072 24.218,24.218 L -32.29,0 Z" /></g><path
           id="path36"
           style="fill:#42426d;fill-opacity:1;fill-rule:nonzero;stroke:none"
           d="m 862.161,651.058 h 32.29 v -32.29 h -32.29 z" /><g
           transform="translate(926.7412,844.7979)"
           id="g38"><path
             id="path40"
             style="fill:#42426d;fill-opacity:1;fill-rule:nonzero;stroke:none"
             d="M 0,0 H 43.592 L 104.943,-169.522 166.294,0 h 43.591 v -226.03 h -32.29 V -56.507 L 117.859,-226.03 H 92.027 L 32.29,-56.507 V -226.03 H 0 Z" /></g><g
           transform="translate(216.4775,559.4219)"
           id="g42"><path
             id="path44"
             style="fill:#42426d;fill-opacity:1;fill-rule:nonzero;stroke:none"
             d="m 0,0 c 0,-3.968 1.983,-5.952 5.952,-5.952 h 8.928 c 3.968,0 5.952,1.984 5.952,5.952 V 10.416 H 8.928 v 2.977 h 14.88 V 0 c 0,-5.952 -2.976,-8.928 -8.928,-8.928 H 5.952 C 0,-8.928 -2.976,-5.952 -2.976,0 v 23.809 c 0,5.952 2.976,8.927 8.928,8.927 H 23.808 V 29.761 H 5.952 C 1.983,29.761 0,27.776 0,23.809 Z" /></g><g
           transform="translate(246.2378,550.4941)"
           id="g46"><path
             id="path48"
             style="fill:#42426d;fill-opacity:1;fill-rule:nonzero;stroke:none"
             d="m 0,0 v 29.76 h 2.083 l 0.893,-2.976 c 1.983,1.984 4.96,2.976 8.928,2.976 v -2.976 c -3.968,0 -6.945,-0.992 -8.928,-2.975 L 2.976,0 Z" /></g><g
           transform="translate(284.3301,550.4941)"
           id="g50"><path
             id="path52"
             style="fill:#42426d;fill-opacity:1;fill-rule:nonzero;stroke:none"
             d="M 0,0 -0.893,2.976 C -2.877,0.992 -5.853,0 -9.821,0 h -2.975 c -5.953,0 -8.929,2.976 -8.929,8.928 V 29.76 h 2.976 V 8.928 c 0,-3.968 1.984,-5.952 5.953,-5.952 h 2.975 c 3.968,0 6.944,0.992 8.928,2.976 V 29.76 H 2.083 L 2.083,0 Z" /></g><g
           transform="translate(304.2695,577.2783)"
           id="g54"><path
             id="path56"
             style="fill:#42426d;fill-opacity:1;fill-rule:nonzero;stroke:none"
             d="m 0,0 c -3.968,0 -6.944,-0.992 -8.928,-2.976 v -17.856 c 1.984,-1.984 4.96,-2.977 8.928,-2.977 h 2.976 c 3.968,0 5.952,1.985 5.952,5.953 V -5.952 C 8.928,-1.984 6.944,0 2.976,0 Z M -11.904,-38.688 V 2.976 h 2.083 L -8.928,0 C -6.944,1.983 -3.968,2.976 0,2.976 h 2.976 c 5.952,0 8.928,-2.976 8.928,-8.928 v -11.904 c 0,-5.953 -2.976,-8.928 -8.928,-8.928 H 0 c -3.968,0 -6.944,0.992 -8.928,2.975 v -14.879 z" /></g><g
           transform="translate(325.1021,559.4219)"
           id="g58"><path
             id="path60"
             style="fill:#42426d;fill-opacity:1;fill-rule:nonzero;stroke:none"
             d="m 0,0 c 0,-3.968 1.983,-5.952 5.952,-5.952 h 5.952 c 3.968,0 5.952,1.984 5.952,5.952 v 11.904 c 0,3.968 -1.984,5.952 -5.952,5.952 H 5.952 C 1.983,17.856 0,15.872 0,11.904 Z m 20.832,0 c 0,-5.952 -2.976,-8.928 -8.928,-8.928 H 5.952 C 0,-8.928 -2.976,-5.952 -2.976,0 v 11.904 c 0,5.952 2.976,8.928 8.928,8.928 h 5.952 c 5.952,0 8.928,-2.976 8.928,-8.928 z" /></g><g
           transform="translate(375.6938,553.4697)"
           id="g62"><path
             id="path64"
             style="fill:#42426d;fill-opacity:1;fill-rule:nonzero;stroke:none"
             d="M 0,0 C 3.968,0 6.944,0.992 8.928,2.977 V 20.833 C 6.944,22.816 3.968,23.809 0,23.809 h -2.976 c -3.968,0 -5.952,-1.985 -5.952,-5.953 V 5.952 C -8.928,1.984 -6.944,0 -2.976,0 Z M 11.904,38.688 V -2.976 H 9.821 L 8.928,0 C 6.944,-1.983 3.968,-2.976 0,-2.976 h -2.976 c -5.952,0 -8.928,2.976 -8.928,8.928 v 11.904 c 0,5.953 2.976,8.928 8.928,8.928 H 0 c 3.968,0 6.944,-0.992 8.928,-2.975 v 14.879 z" /></g><g
           transform="translate(396.5264,566.8623)"
           id="g66"><path
             id="path68"
             style="fill:#42426d;fill-opacity:1;fill-rule:nonzero;stroke:none"
             d="m 0,0 h 17.856 v 4.464 c 0,3.968 -1.984,5.952 -5.952,5.952 H 5.952 C 1.983,10.416 0,8.432 0,4.464 Z M 0,-2.977 V -7.44 c 0,-3.968 1.983,-5.953 5.952,-5.953 h 13.392 v -2.975 H 5.952 c -5.952,0 -8.928,2.975 -8.928,8.928 V 4.464 c 0,5.952 2.976,8.928 8.928,8.928 h 5.952 c 5.952,0 8.928,-2.976 8.928,-8.928 v -7.441 z" /></g><g
           transform="translate(459.0225,572.8145)"
           id="g70"><path
             id="path72"
             style="fill:#42426d;fill-opacity:1;fill-rule:nonzero;stroke:none"
             d="M 0,0 V -2.977 H -20.832 V -19.345 H 0 V -22.32 H -23.808 V 19.344 H 0 V 16.368 H -20.832 V 0 Z" /></g><g
           transform="translate(467.0576,580.2539)"
           id="g74"><path
             id="path76"
             style="fill:#42426d;fill-opacity:1;fill-rule:nonzero;stroke:none"
             d="M 0,0 0.893,-2.976 C 2.876,-0.992 5.853,0 9.821,0 13.253,0 15.693,-0.992 17.142,-2.976 19.681,-0.992 22.697,0 26.189,0 33.133,0 36.605,-2.976 36.605,-8.928 V -29.76 h -2.976 v 20.832 c 0,3.968 -2.192,5.952 -6.577,5.952 -4.385,0 -7.153,-0.992 -8.303,-2.975 V -29.76 h -2.976 v 21.13 c -0.1,3.77 -2.083,5.654 -5.952,5.654 -3.968,0 -6.945,-0.992 -8.928,-2.975 V -29.76 H -2.083 V 0 Z" /></g><g
           transform="translate(512.5908,566.8623)"
           id="g78"><path
             id="path80"
             style="fill:#42426d;fill-opacity:1;fill-rule:nonzero;stroke:none"
             d="m 0,0 h 17.856 v 4.464 c 0,3.968 -1.984,5.952 -5.952,5.952 H 5.952 C 1.983,10.416 0,8.432 0,4.464 Z M 0,-2.977 V -7.44 c 0,-3.968 1.983,-5.953 5.952,-5.953 h 13.392 v -2.975 H 5.952 c -5.952,0 -8.928,2.975 -8.928,8.928 V 4.464 c 0,5.952 2.976,8.928 8.928,8.928 h 5.952 c 5.952,0 8.928,-2.976 8.928,-8.928 v -7.441 z" /></g><g
           transform="translate(539.375,550.4941)"
           id="g82"><path
             id="path84"
             style="fill:#42426d;fill-opacity:1;fill-rule:nonzero;stroke:none"
             d="m 0,0 v 29.76 h 2.083 l 0.893,-2.976 c 1.983,1.984 4.96,2.976 8.928,2.976 v -2.976 c -3.968,0 -6.945,-0.992 -8.928,-2.975 L 2.976,0 Z" /></g><g
           transform="translate(567.647,553.4697)"
           id="g86"><path
             id="path88"
             style="fill:#42426d;fill-opacity:1;fill-rule:nonzero;stroke:none"
             d="M 0,0 C 3.968,0 6.944,0.992 8.928,2.977 V 20.833 C 6.944,22.816 3.968,23.809 0,23.809 h -2.976 c -3.968,0 -5.952,-1.985 -5.952,-5.953 V 5.952 C -8.928,1.984 -6.944,0 -2.976,0 Z m -8.928,-14.88 v 2.977 H 0 c 5.952,0 8.928,2.975 8.928,8.927 V 0 C 6.944,-1.983 3.968,-2.976 0,-2.976 h -2.976 c -5.952,0 -8.928,2.976 -8.928,8.928 v 11.904 c 0,5.953 2.976,8.928 8.928,8.928 H 0 c 3.968,0 6.944,-0.992 8.928,-2.975 l 0.893,2.975 h 2.083 V -2.976 C 11.904,-10.911 7.936,-14.88 0,-14.88 Z" /></g><g
           transform="translate(595.3237,592.1582)"
           id="g90"><path
             id="path92"
             style="fill:#42426d;fill-opacity:1;fill-rule:nonzero;stroke:none"
             d="M 0,0 H 4.167 L 9.523,-8.928 H 5.952 l -3.869,5.952 -3.869,-5.952 h -3.571 z m -6.845,-25.296 h 17.856 v 4.464 c 0,3.968 -1.984,5.952 -5.952,5.952 h -5.952 c -3.968,0 -5.952,-1.984 -5.952,-5.952 z m 0,-2.976 v -4.464 c 0,-3.968 1.984,-5.952 5.952,-5.952 h 13.392 v -2.976 H -0.893 c -5.952,0 -8.928,2.976 -8.928,8.928 v 11.904 c 0,5.952 2.976,8.928 8.928,8.928 h 5.952 c 5.952,0 8.928,-2.976 8.928,-8.928 v -7.44 z" /></g><g
           transform="translate(617.3462,580.2539)"
           id="g94"><path
             id="path96"
             style="fill:#42426d;fill-opacity:1;fill-rule:nonzero;stroke:none"
             d="M 0,0 0.893,-2.976 C 2.876,-0.992 5.853,0 9.821,0 h 2.976 c 5.952,0 8.928,-2.976 8.928,-8.928 V -29.76 h -2.976 v 20.832 c 0,3.968 -1.984,5.952 -5.952,5.952 H 9.821 c -3.968,0 -6.945,-0.992 -8.928,-2.975 V -29.76 H -2.083 V 0 Z" /></g><g
           transform="translate(647.9995,559.4219)"
           id="g98"><path
             id="path100"
             style="fill:#42426d;fill-opacity:1;fill-rule:nonzero;stroke:none"
             d="M 0,0 C 0,-3.968 1.983,-5.952 5.952,-5.952 H 17.856 V -8.928 H 5.952 C 0,-8.928 -2.976,-5.952 -2.976,0 v 11.904 c 0,5.952 2.976,8.928 8.928,8.928 H 17.856 V 17.856 H 5.952 C 1.983,17.856 0,15.872 0,11.904 Z" /></g><path
           id="path102"
           style="fill:#42426d;fill-opacity:1;fill-rule:nonzero;stroke:none"
           d="m 674.784,550.494 h -2.976 v 29.76 h 2.976 z m 0,35.712 h -2.976 v 5.952 h 2.976 z" /><g
           transform="translate(692.6392,553.4697)"
           id="g104"><path
             id="path106"
             style="fill:#42426d;fill-opacity:1;fill-rule:nonzero;stroke:none"
             d="M 0,0 C 3.968,0 6.944,0.992 8.928,2.977 V 8.929 C 6.944,10.912 3.968,11.904 0,11.904 H -2.976 C -6.944,11.904 -8.928,9.92 -8.928,5.952 -8.928,1.984 -6.944,0 -2.976,0 Z m 8.928,14.881 c 0,5.952 -2.976,8.928 -8.928,8.928 h -8.928 v 2.975 H 0 c 7.936,0 11.904,-3.968 11.904,-11.903 V -2.976 H 9.821 L 8.928,0 C 6.944,-1.983 3.968,-2.976 0,-2.976 h -2.976 c -5.952,0 -8.928,2.976 -8.928,8.928 0,5.952 2.976,8.929 8.928,8.929 H 0 c 3.968,0 6.944,-0.993 8.928,-2.977 z" /></g><g
           transform="translate(725.376,566.8623)"
           id="g108"><path
             id="path110"
             style="fill:#42426d;fill-opacity:1;fill-rule:nonzero;stroke:none"
             d="m 0,0 h 17.856 v 4.464 c 0,3.968 -1.984,5.952 -5.952,5.952 H 5.952 C 1.983,10.416 0,8.432 0,4.464 Z M 0,-2.977 V -7.44 c 0,-3.968 1.983,-5.953 5.952,-5.953 h 13.392 v -2.975 H 5.952 c -5.952,0 -8.928,2.975 -8.928,8.928 V 4.464 c 0,5.952 2.976,8.928 8.928,8.928 h 5.952 c 5.952,0 8.928,-2.976 8.928,-8.928 v -7.441 z" /></g><g
           transform="translate(767.04,592.1582)"
           id="g112"><path
             id="path114"
             style="fill:#42426d;fill-opacity:1;fill-rule:nonzero;stroke:none"
             d="m 0,0 v -32.736 c 0,-3.968 1.983,-5.952 5.952,-5.952 h 8.928 c 3.968,0 5.952,1.984 5.952,5.952 V 0 h 2.976 v -32.736 c 0,-5.952 -2.976,-8.928 -8.928,-8.928 H 5.952 c -5.952,0 -8.928,2.976 -8.928,8.928 l 0,32.736 z" /></g><g
           transform="translate(796.8003,550.4941)"
           id="g116"><path
             id="path118"
             style="fill:#42426d;fill-opacity:1;fill-rule:nonzero;stroke:none"
             d="m 0,0 v 29.76 h 2.083 l 0.893,-2.976 c 1.983,1.984 4.96,2.976 8.928,2.976 v -2.976 c -3.968,0 -6.945,-0.992 -8.928,-2.975 L 2.976,0 Z" /></g><g
           transform="translate(825.0718,553.4697)"
           id="g120"><path
             id="path122"
             style="fill:#42426d;fill-opacity:1;fill-rule:nonzero;stroke:none"
             d="M 0,0 C 3.968,0 6.944,0.992 8.928,2.977 V 20.833 C 6.944,22.816 3.968,23.809 0,23.809 h -2.976 c -3.968,0 -5.952,-1.985 -5.952,-5.953 V 5.952 C -8.928,1.984 -6.944,0 -2.976,0 Z m -8.928,-14.88 v 2.977 H 0 c 5.952,0 8.928,2.975 8.928,8.927 V 0 C 6.944,-1.983 3.968,-2.976 0,-2.976 h -2.976 c -5.952,0 -8.928,2.976 -8.928,8.928 v 11.904 c 0,5.953 2.976,8.928 8.928,8.928 H 0 c 3.968,0 6.944,-0.992 8.928,-2.975 l 0.893,2.975 h 2.083 V -2.976 C 11.904,-10.911 7.936,-14.88 0,-14.88 Z" /></g><g
           transform="translate(852.749,592.1582)"
           id="g124"><path
             id="path126"
             style="fill:#42426d;fill-opacity:1;fill-rule:nonzero;stroke:none"
             d="M 0,0 H 4.167 L 9.523,-8.928 H 5.952 l -3.869,5.952 -3.869,-5.952 h -3.571 z m -6.845,-25.296 h 17.856 v 4.464 c 0,3.968 -1.984,5.952 -5.952,5.952 h -5.952 c -3.968,0 -5.952,-1.984 -5.952,-5.952 z m 0,-2.976 v -4.464 c 0,-3.968 1.984,-5.952 5.952,-5.952 h 13.392 v -2.976 H -0.893 c -5.952,0 -8.928,2.976 -8.928,8.928 v 11.904 c 0,5.952 2.976,8.928 8.928,8.928 h 5.952 c 5.952,0 8.928,-2.976 8.928,-8.928 v -7.44 z" /></g><g
           transform="translate(874.7715,580.2539)"
           id="g128"><path
             id="path130"
             style="fill:#42426d;fill-opacity:1;fill-rule:nonzero;stroke:none"
             d="M 0,0 0.893,-2.976 C 2.876,-0.992 5.853,0 9.821,0 h 2.976 c 5.952,0 8.928,-2.976 8.928,-8.928 V -29.76 h -2.976 v 20.832 c 0,3.968 -1.984,5.952 -5.952,5.952 H 9.821 c -3.968,0 -6.945,-0.992 -8.928,-2.975 V -29.76 H -2.083 V 0 Z" /></g><g
           transform="translate(905.4248,559.4219)"
           id="g132"><path
             id="path134"
             style="fill:#42426d;fill-opacity:1;fill-rule:nonzero;stroke:none"
             d="M 0,0 C 0,-3.968 1.983,-5.952 5.952,-5.952 H 17.856 V -8.928 H 5.952 C 0,-8.928 -2.976,-5.952 -2.976,0 v 11.904 c 0,5.952 2.976,8.928 8.928,8.928 H 17.856 V 17.856 H 5.952 C 1.983,17.856 0,15.872 0,11.904 Z" /></g><path
           id="path136"
           style="fill:#42426d;fill-opacity:1;fill-rule:nonzero;stroke:none"
           d="m 932.208,550.494 h -2.976 v 29.76 h 2.976 z m 0,35.712 h -2.976 v 5.952 h 2.976 z" /><g
           transform="translate(950.0645,553.4697)"
           id="g138"><path
             id="path140"
             style="fill:#42426d;fill-opacity:1;fill-rule:nonzero;stroke:none"
             d="M 0,0 C 3.968,0 6.944,0.992 8.928,2.977 V 8.929 C 6.944,10.912 3.968,11.904 0,11.904 H -2.976 C -6.944,11.904 -8.928,9.92 -8.928,5.952 -8.928,1.984 -6.944,0 -2.976,0 Z m 8.928,14.881 c 0,5.952 -2.976,8.928 -8.928,8.928 h -8.928 v 2.975 H 0 c 7.936,0 11.904,-3.968 11.904,-11.903 V -2.976 H 9.821 L 8.928,0 C 6.944,-1.983 3.968,-2.976 0,-2.976 h -2.976 c -5.952,0 -8.928,2.976 -8.928,8.928 0,5.952 2.976,8.929 8.928,8.929 H 0 c 3.968,0 6.944,-0.993 8.928,-2.977 z" /></g><g
           transform="translate(979.8247,592.1582)"
           id="g142"><path
             id="path144"
             style="fill:#42426d;fill-opacity:1;fill-rule:nonzero;stroke:none"
             d="M 0,0 H 5.059 L 17.856,-38.688 30.653,0 h 5.059 V -41.664 H 32.736 V -2.976 L 20.237,-41.664 H 15.475 L 2.976,-2.976 V -41.664 H 0 Z" /></g><g
           transform="translate(1031.3989,583.2305)"
           id="g146"><path
             id="path148"
             style="fill:#42426d;fill-opacity:1;fill-rule:nonzero;stroke:none"
             d="M 0,0 2.678,8.928 H 5.952 L 3.273,0 Z m -6.934,-16.368 h 17.856 v 4.464 c 0,3.967 -1.984,5.952 -5.952,5.952 h -5.952 c -3.969,0 -5.952,-1.985 -5.952,-5.952 z m 0,-2.977 v -4.464 c 0,-3.967 1.983,-5.952 5.952,-5.952 H 12.41 v -2.975 H -0.982 c -5.952,0 -8.928,2.975 -8.928,8.927 v 11.905 c 0,5.952 2.976,8.927 8.928,8.927 H 4.97 c 5.952,0 8.928,-2.975 8.928,-8.927 v -7.441 z" /></g><g
           transform="translate(1063.1528,553.4697)"
           id="g150"><path
             id="path152"
             style="fill:#42426d;fill-opacity:1;fill-rule:nonzero;stroke:none"
             d="M 0,0 C 3.968,0 6.944,0.992 8.928,2.977 V 20.833 C 6.944,22.816 3.968,23.809 0,23.809 h -2.976 c -3.968,0 -5.952,-1.985 -5.952,-5.953 V 5.952 C -8.928,1.984 -6.944,0 -2.976,0 Z M 11.904,38.688 V -2.976 H 9.821 L 8.928,0 C 6.944,-1.983 3.968,-2.976 0,-2.976 h -2.976 c -5.952,0 -8.928,2.976 -8.928,8.928 v 11.904 c 0,5.953 2.976,8.928 8.928,8.928 H 0 c 3.968,0 6.944,-0.992 8.928,-2.975 v 14.879 z" /></g><path
           id="path154"
           style="fill:#42426d;fill-opacity:1;fill-rule:nonzero;stroke:none"
           d="m 1083.985,550.494 h -2.976 v 29.76 h 2.976 z m 0,35.712 h -2.976 v 5.952 h 2.976 z" /><g
           transform="translate(1092.9136,559.4219)"
           id="g156"><path
             id="path158"
             style="fill:#42426d;fill-opacity:1;fill-rule:nonzero;stroke:none"
             d="M 0,0 C 0,-3.968 1.983,-5.952 5.952,-5.952 H 17.856 V -8.928 H 5.952 C 0,-8.928 -2.976,-5.952 -2.976,0 v 11.904 c 0,5.952 2.976,8.928 8.928,8.928 H 17.856 V 17.856 H 5.952 C 1.983,17.856 0,15.872 0,11.904 Z" /></g><g
           transform="translate(1128.625,553.4697)"
           id="g160"><path
             id="path162"
             style="fill:#42426d;fill-opacity:1;fill-rule:nonzero;stroke:none"
             d="M 0,0 C 3.968,0 6.944,0.992 8.928,2.977 V 8.929 C 6.944,10.912 3.968,11.904 0,11.904 H -2.976 C -6.944,11.904 -8.928,9.92 -8.928,5.952 -8.928,1.984 -6.944,0 -2.976,0 Z m 8.928,14.881 c 0,5.952 -2.976,8.928 -8.928,8.928 h -8.928 v 2.975 H 0 c 7.936,0 11.904,-3.968 11.904,-11.903 V -2.976 H 9.821 L 8.928,0 C 6.944,-1.983 3.968,-2.976 0,-2.976 h -2.976 c -5.952,0 -8.928,2.976 -8.928,8.928 0,5.952 2.976,8.929 8.928,8.929 H 0 c 3.968,0 6.944,-0.993 8.928,-2.977 z" /></g><g
           transform="translate(1242.1855,708.4062)"
           id="g164"><path
             id="path166"
             style="fill:#f0565d;fill-opacity:1;fill-rule:nonzero;stroke:none"
             d="m 0,0 c 0,-9.088 -7.369,-16.457 -16.457,-16.457 h -51.85 c -9.087,0 -16.456,7.369 -16.456,16.457 v 51.85 c 0,9.087 7.369,16.456 16.456,16.456 h 51.85 C -7.369,68.306 0,60.937 0,51.85 Z" /></g><g
           transform="translate(1242.1855,708.4062)"
           id="g168"><path
             id="path170"
             style="fill:none;stroke:#ffffff;stroke-width:3;stroke-linecap:butt;stroke-linejoin:miter;stroke-miterlimit:10;stroke-dasharray:none;stroke-opacity:1"
             d="m 0,0 c 0,-9.088 -7.369,-16.457 -16.457,-16.457 h -51.85 c -9.087,0 -16.456,7.369 -16.456,16.457 v 51.85 c 0,9.087 7.369,16.456 16.456,16.456 h 51.85 C -7.369,68.306 0,60.937 0,51.85 Z" /></g><g
           transform="translate(1173.9141,744.5635)"
           id="g172"><path
             id="path174"
             style="fill:#ffffff;fill-opacity:1;fill-rule:nonzero;stroke:none"
             d="M 0,0 H 15.657 V 15.658 H 36.123 V 0 H 51.78 V -20.47 H 36.123 V -36.121 H 15.657 V -20.47 L 0,-20.47 Z" /></g></g></g></g></svg>